<?xml version="1.0" encoding="utf-8"?>
<!-- Svg Vector Icons : http://www.onlinewebfonts.com/icon -->
<!DOCTYPE svg PUBLIC "-//W3C//DTD SVG 1.1//EN" "http://www.w3.org/Graphics/SVG/1.1/DTD/svg11.dtd">
<svg version="1.1" xmlns="http://www.w3.org/2000/svg" xmlns:xlink="http://www.w3.org/1999/xlink" x="0px" y="0px" viewBox="0 0 256 256" enable-background="new 0 0 256 256" xml:space="preserve">
<metadata> Svg Vector Icons : http://www.onlinewebfonts.com/icon </metadata>
<g> <path fill="#000000" d="M241.5,116.2l-67.4-72c-2.1-2.3-4.8-3.8-7.8-4.4c-3-0.6-6-0.3-8.8,1c-2.8,1.3-5.2,3.4-6.8,6.1 c-1.7,2.7-2.5,5.9-2.5,9.1v36.2c-30.4,2.6-59.6,14.5-84,34.3c-24.4,19.8-43.1,46.8-53.9,77.8c-0.2,0.6-0.2,1.3-0.1,2 c0.2,0.7,0.5,1.2,1,1.7c1,0.9,2.4,1,3.5,0.2c40.3-26.7,86.2-41.8,133.4-44V200c0,3.3,0.9,6.4,2.5,9.1c1.7,2.7,4,4.8,6.8,6.1 c2.8,1.3,5.8,1.6,8.8,1c3-0.6,5.7-2.2,7.8-4.4l67.4-72c1.4-1.5,2.6-3.4,3.4-5.4c1.6-4.1,1.6-8.6,0-12.7 C244.1,119.6,242.9,117.8,241.5,116.2L241.5,116.2z"/></g>
</svg>